<?xml version="1.0" encoding="UTF-8"?>
<!DOCTYPE svg PUBLIC "-//W3C//DTD SVG 1.1//EN" "http://www.w3.org/Graphics/SVG/1.1/DTD/svg11.dtd">
<svg version="1.1" xmlns="http://www.w3.org/2000/svg" xmlns:xlink="http://www.w3.org/1999/xlink" x="0" y="0" width="400" height="400" viewBox="0, 0, 400, 400">
  <g id="Layer_1">
    <g>
      <path d="M278.262,126.798 C217.977,126.798 169.107,105.129 169.107,78.399 C169.107,51.669 217.977,30 278.262,30 C338.546,30 387.416,51.669 387.416,78.399 C387.416,105.129 338.546,126.798 278.262,126.798 z" fill="#FFFFFF"/>
      <path d="M278.262,126.798 C217.977,126.798 169.107,105.129 169.107,78.399 C169.107,51.669 217.977,30 278.262,30 C338.546,30 387.416,51.669 387.416,78.399 C387.416,105.129 338.546,126.798 278.262,126.798 z" fill-opacity="0" stroke="#002AFF" stroke-width="8"/>
    </g>
    <g>
      <path d="M7.398,257.295 L152.889,5.299 L298.379,257.295 z" fill="#FFFFFF"/>
      <g>
        <path d="M7.398,257.295 L152.889,5.299 L298.379,257.295 z" fill="#FFFFFF"/>
        <path d="M7.398,257.295 L152.889,5.299 L298.379,257.295 z" fill-opacity="0" stroke="#FF0000" stroke-width="5"/>
      </g>
    </g>
    <g>
      <path d="M246.061,359.061 C185.769,359.061 136.893,311.618 136.893,253.093 C136.893,194.568 185.769,147.124 246.061,147.124 C306.352,147.124 355.228,194.568 355.228,253.093 C355.228,311.618 306.352,359.061 246.061,359.061 z" fill="#000000"/>
      <path d="M246.061,359.061 C185.769,359.061 136.893,311.618 136.893,253.093 C136.893,194.568 185.769,147.124 246.061,147.124 C306.352,147.124 355.228,194.568 355.228,253.093 C355.228,311.618 306.352,359.061 246.061,359.061 z" fill-opacity="0" stroke="#3DFF00" stroke-width="5"/>
    </g>
  </g>
</svg>
